<svg xmlns="http://www.w3.org/2000/svg" viewBox="0 0 260 260">
<path d="M17 148Q17 144 20.0 141.5Q23 139 27.0 139.0Q31 139 34.0 141.5Q37 144 37.0 148.0Q37 152 34.0 155.0Q31 158 27.0 158.0Q23 158 20.0 155.0Q17 152 17 148ZM173 147Q173 129 160.5 116.5Q148 104 130.0 104.0Q112 104 99.5 116.5Q87 129 87.0 147.0Q87 165 99.5 178.0Q112 191 130.0 191.0Q148 191 160.5 178.0Q173 165 173 147ZM156 147Q156 158 148.5 165.5Q141 173 130.0 173.0Q119 173 111.5 165.5Q104 158 104.0 147.5Q104 137 111.5 129.0Q119 121 130.0 121.0Q141 121 148.5 129.0Q156 137 156 147ZM130 52Q95 52 66.0 71.0Q37 90 23 121H42Q55 98 78.5 83.5Q102 69 130 69Q153 69 173.5 79.5Q194 90 208.0 107.5Q222 125 227 147H245Q240 120 223.5 98.5Q207 77 182.5 64.5Q158 52 130 52Z"></path>
</svg>
