<svg xmlns="http://www.w3.org/2000/svg" viewBox="0 0 260 260">
<path d="M191 113V78Q191 66 186.0 55.0Q181 44 172.5 35.5Q164 27 153.0 22.0Q142 17 130.0 17.0Q118 17 107.0 22.0Q96 27 87.5 35.5Q79 44 74.0 55.0Q69 66 69 78V113H43V243H217V113ZM87 78Q87 60 99.5 47.5Q112 35 130.0 35.0Q148 35 160.5 47.5Q173 60 173 78V113H87ZM199 225H61V182H103V165H61V130H199ZM130 183Q126 183 123.0 180.0Q120 177 120.0 173.0Q120 169 123.0 166.5Q126 164 130.0 164.0Q134 164 137.0 166.5Q140 169 140.0 173.0Q140 177 137.0 180.0Q134 183 130 183Z"></path>
</svg>
