<svg xmlns="http://www.w3.org/2000/svg" viewBox="0 0 260 260">
<path d="M191 94V118Q172 118 157 107V155Q157 173 144.5 186.0Q132 199 113 199Q99 199 88 191Q79 185 74.0 175.5Q69 166 69 155Q69 137 82.0 124.5Q95 112 113 112H119V136Q116 135 113 135Q105 135 99.0 141.0Q93 147 93 155Q93 161 96.0 165.5Q99 170 103.5 172.5Q108 175 113 175Q121 175 127.0 169.5Q133 164 133 156V61H157L158 67Q161 81 173 89Q181 94 191 94ZM130 243Q99 243 73.5 227.5Q48 212 32.5 186.5Q17 161 17.0 130.0Q17 99 32.5 73.5Q48 48 73.5 32.5Q99 17 130.0 17.0Q161 17 186.5 32.5Q212 48 227.5 73.5Q243 99 243.0 130.0Q243 161 227.5 186.5Q212 212 186.5 227.5Q161 243 130 243ZM130 35Q104 35 82.0 47.5Q60 60 47.5 82.0Q35 104 35.0 130.0Q35 156 47.5 178.0Q60 200 82.0 212.5Q104 225 130.0 225.0Q156 225 178.0 212.5Q200 200 212.5 178.0Q225 156 225.0 130.0Q225 104 212.5 82.0Q200 60 178.0 47.5Q156 35 130 35Z"></path>
</svg>
