<svg xmlns="http://www.w3.org/2000/svg" viewBox="0 0 260 260">
<path d="M130 26Q102 26 78.0 40.0Q54 54 40.0 78.0Q26 102 26 130Q26 163 44.5 189.0Q63 215 92 227Q90 208 92 197L105 145L103 141Q101 136 101 130Q101 119 106.5 112.0Q112 105 119.5 105.0Q127 105 130.0 109.0Q133 113 133.0 119.0Q133 125 128 141L125 154Q123 162 127.5 167.5Q132 173 140 173Q154 173 163.5 159.5Q173 146 173 125Q173 106 160.5 94.5Q148 83 128.0 83.0Q108 83 95.0 96.5Q82 110 82 128Q82 134 84.5 141.0Q87 148 90 152Q91 153 91 155L88 166Q87 169 85 168Q75 163 69.5 151.5Q64 140 64 127Q64 111 72.0 96.5Q80 82 95.5 73.0Q111 64 132 64Q150 64 164.5 72.0Q179 80 187.5 94.0Q196 108 196.0 125.0Q196 142 189.0 156.5Q182 171 170.0 180.0Q158 189 143 189Q135 189 128.0 185.5Q121 182 119 177L112 202Q110 212 99 229Q115 234 130 234Q158 234 182.0 220.0Q206 206 220.0 182.0Q234 158 234.0 130.0Q234 102 220.0 78.0Q206 54 182.0 40.0Q158 26 130 26Z"></path>
</svg>
