<svg xmlns="http://www.w3.org/2000/svg" viewBox="0 0 260 260">
<path d="M211 35H49Q43 35 39.0 39.0Q35 43 35 49V211Q35 217 39.0 221.0Q43 225 49 225H211Q217 225 221.0 221.0Q225 217 225 211V49Q225 43 221.0 39.0Q217 35 211 35ZM91 197H63V106H91ZM77 94Q71 94 66.0 89.0Q61 84 61.0 77.5Q61 71 66.0 66.0Q71 61 77.5 61.0Q84 61 89.0 66.0Q94 71 94.0 77.5Q94 84 89.0 89.0Q84 94 77 94ZM197 197H169V147Q169 128 154 128Q137 128 137 150V197H109V106H136V119L139 115Q143 110 148 108Q154 104 163 104Q182 104 190 116Q197 126 197 146Z"></path>
</svg>
