<svg xmlns="http://www.w3.org/2000/svg" viewBox="0 0 260 260">
<path d="M130 26Q102 26 78.0 40.0Q54 54 40.0 78.0Q26 102 26.0 130.0Q26 158 40.0 182.0Q54 206 78.0 220.0Q102 234 130.0 234.0Q158 234 182.0 220.0Q206 206 220.0 182.0Q234 158 234.0 130.0Q234 102 220.0 78.0Q206 54 182.0 40.0Q158 26 130 26ZM217 130Q217 139 215 147L205 143Q198 139 190.0 140.5Q182 142 176 148L172 152Q170 154 168 154H152Q150 154 149 153L138 141V117H150Q160 117 165 111L179 97Q190 86 190 70V67Q202 79 209.5 95.5Q217 112 217 130ZM134 43 130 54Q127 60 120 60H116Q111 60 108 57L100 49Q114 43 130 43ZM43 130Q43 108 54 88L59 99Q61 102 61 107V121Q61 131 65.0 140.5Q69 150 76 158L80 162Q85 167 86 171L91 207Q70 197 56.5 176.0Q43 155 43 130ZM130 217Q120 217 110 214L103 169Q101 158 93 150L89 146Q78 135 78 121V107Q78 98 75 92L66 72Q74 63 84 57L96 69Q104 77 116 77H120Q128 77 135.0 72.5Q142 68 145 61L152 46Q163 49 172 54V70Q172 79 166 85L153 99Q152 100 150 100H133Q128 100 124.0 103.5Q120 107 120 113V142Q120 149 126 155L137 165Q143 171 152 171H168Q177 171 184 164L188 160Q192 156 198 158L210 164Q200 188 178.0 202.5Q156 217 130 217Z"></path>
</svg>
