<svg xmlns="http://www.w3.org/2000/svg" viewBox="0 0 260 260">
<path d="M140 235Q140 239 137.0 242.0Q134 245 130.0 245.0Q126 245 123.0 242.0Q120 239 120.0 235.0Q120 231 123.0 228.0Q126 225 130.0 225.0Q134 225 137.0 228.0Q140 231 140 235ZM191 104Q191 75 175.0 51.0Q159 27 133 18L130 17L127 18Q101 27 85.0 51.0Q69 75 69 104Q69 122 75.5 138.0Q82 154 93 167L105 155Q96 145 91.5 131.5Q87 118 87 104Q87 81 98.5 62.5Q110 44 130 35Q150 44 161.5 62.5Q173 81 173 104Q173 124 164.0 141.0Q155 158 139 168V100H121V208H139V188Q162 177 176.5 154.0Q191 131 191 104Z"></path>
</svg>
