<svg xmlns="http://www.w3.org/2000/svg" viewBox="0 0 260 260">
<path d="M130 234Q102 234 78.0 220.0Q54 206 40.0 182.0Q26 158 26.0 130.0Q26 102 40.0 78.0Q54 54 78.0 40.0Q102 26 130.0 26.0Q158 26 182.0 40.0Q206 54 220.0 78.0Q234 102 234.0 130.0Q234 158 220.0 182.0Q206 206 182.0 220.0Q158 234 130 234ZM130 43Q106 43 86.5 55.0Q67 67 55.0 86.5Q43 106 43.0 130.0Q43 154 55.0 173.5Q67 193 86.5 205.0Q106 217 130.0 217.0Q154 217 173.5 205.0Q193 193 205.0 173.5Q217 154 217.0 130.0Q217 106 205.0 86.5Q193 67 173.5 55.0Q154 43 130 43ZM111 182Q108 182 106 181Q100 178 100 171V89Q100 82 106.0 79.0Q112 76 118 80L173 121Q178 124 178.0 130.0Q178 136 173 139L118 180Q115 182 111 182ZM117 159 156 130 117 101Z"></path>
</svg>
