<svg xmlns="http://www.w3.org/2000/svg" viewBox="0 0 260 260">
<path d="M130 26Q102 26 78.0 40.0Q54 54 40.0 78.0Q26 102 26.0 130.0Q26 158 40.0 182.0Q54 206 78.0 220.0Q102 234 130.0 234.0Q158 234 182.0 220.0Q206 206 220.0 182.0Q234 158 234.0 130.0Q234 102 220.0 78.0Q206 54 182.0 40.0Q158 26 130 26ZM130 217Q106 217 86.5 205.0Q67 193 55.0 173.5Q43 154 43.0 130.0Q43 106 55.0 86.5Q67 67 86.5 55.0Q106 43 130.0 43.0Q154 43 173.5 55.0Q193 67 205.0 86.5Q217 106 217.0 130.0Q217 154 205.0 173.5Q193 193 173.5 205.0Q154 217 130 217ZM78 121H182V139H78Z"></path>
</svg>
