<svg xmlns="http://www.w3.org/2000/svg" viewBox="0 0 260 260">
<path d="M130 26Q102 26 78.0 40.0Q54 54 40.0 78.0Q26 102 26 130Q26 161 43 187L26 234L72 216Q95 232 122.5 234.0Q150 236 175.0 224.0Q200 212 216.0 188.5Q232 165 234.0 137.5Q236 110 224.0 85.0Q212 60 188 44Q162 26 130 26ZM189 171Q187 176 181.0 179.5Q175 183 169.0 185.0Q163 187 155.0 185.5Q147 184 133 178Q115 171 98 154Q90 145 82 134V133Q78 128 75 123Q70 112 70.0 103.0Q70 94 73 87Q75 83 79 79L80 78Q83 74 88 74H93Q96 74 97.5 75.0Q99 76 100 79L110 101Q111 104 110.0 106.5Q109 109 107 112L102 117Q99 120 101 123Q108 134 117.5 143.0Q127 152 140 157L142 158Q146 160 148 157Q155 149 157.0 146.0Q159 143 160.5 143.0Q162 143 165.0 144.0Q168 145 185 154H186Q190 156 190.5 157.0Q191 158 190.5 162.0Q190 166 189 171Z"></path>
</svg>
