<svg xmlns="http://www.w3.org/2000/svg" viewBox="0 0 260 260">
<path d="M121 104Q103 104 90.5 91.5Q78 79 78.0 61.0Q78 43 90.5 30.0Q103 17 121.0 17.0Q139 17 152.0 30.0Q165 43 165.0 61.0Q165 79 152.0 91.5Q139 104 121 104ZM121 35Q111 35 103.0 42.5Q95 50 95.0 60.5Q95 71 103.0 79.0Q111 87 121.5 87.0Q132 87 139.5 79.0Q147 71 147.0 60.5Q147 50 139.5 42.5Q132 35 121 35ZM101 224Q97 224 94.0 227.0Q91 230 91.0 234.0Q91 238 94.0 241.0Q97 244 101.0 244.0Q105 244 108.0 241.0Q111 238 111.0 234.0Q111 230 108.0 227.0Q105 224 101 224ZM173 130Q167 130 161 131Q143 121 121 121Q98 121 78.0 133.0Q58 145 46.5 164.5Q35 184 35 208V243H74V225H52V208Q52 189 61.5 173.0Q71 157 87.0 148.0Q103 139 121 139Q130 139 139 141Q127 149 120.0 162.0Q113 175 113.0 191.0Q113 207 121.0 221.0Q129 235 143.0 243.0Q157 251 173.5 251.0Q190 251 204.0 243.0Q218 235 226.0 221.0Q234 207 234.0 190.5Q234 174 226.0 160.0Q218 146 204.0 138.0Q190 130 173 130ZM173 234Q155 234 142.5 221.5Q130 209 130 191Q130 177 138.0 165.5Q146 154 159 150Q166 147 172.5 147.0Q179 147 185 149Q199 153 208.0 164.5Q217 176 217 191Q217 209 204.0 221.5Q191 234 173 234ZM199 182H182V165H165V182H147V199H165V217H182V199H199Z"></path>
</svg>
