<svg xmlns="http://www.w3.org/2000/svg" viewBox="0 0 260 260">
<path d="M134 17H43V243H76V225H61V35H121V113H199V225H130V243H217V100ZM139 47 187 95H139ZM113 234Q113 237 111.0 239.5Q109 242 106.5 243.0Q104 244 101.0 243.5Q98 243 96.0 241.0Q94 239 93.5 236.0Q93 233 94.0 230.5Q95 228 97.5 226.0Q100 224 103.5 224.0Q107 224 110.0 227.0Q113 230 113 234ZM89 151H77V187H89Q109 187 109.0 169.0Q109 151 89 151ZM90 179H87V159H89Q94 159 96.5 161.5Q99 164 99.0 169.5Q99 175 97.0 177.0Q95 179 90 179ZM130 150Q123 150 118.0 155.0Q113 160 113.0 169.0Q113 178 118.0 183.0Q123 188 130.0 188.0Q137 188 142.5 183.0Q148 178 148.0 169.0Q148 160 142.5 155.0Q137 150 130 150ZM130 180Q127 180 125.0 177.0Q123 174 123.0 169.0Q123 164 125.0 161.5Q127 159 130.5 159.0Q134 159 136.0 161.5Q138 164 138.0 169.0Q138 174 136.0 177.0Q134 180 130 180ZM183 176V177Q179 188 168 188Q160 188 155.5 183.0Q151 178 151.0 169.0Q151 160 155.5 155.0Q160 150 167 150Q178 150 182 159V160L174 164V163Q173 161 171.0 160.0Q169 159 167 159Q161 159 161.0 169.5Q161 180 168 180Q173 180 174 174L175 173Z"></path>
</svg>
