<svg xmlns="http://www.w3.org/2000/svg" viewBox="0 0 260 260">
<path d="M181 68Q176 68 172.5 71.0Q169 74 169.0 79.0Q169 84 172.5 87.0Q176 90 181.0 90.0Q186 90 189.0 87.0Q192 84 192.0 79.0Q192 74 189.0 71.0Q186 68 181 68ZM225 130Q225 103 224.5 90.0Q224 77 220.0 67.5Q216 58 209.0 50.5Q202 43 192.0 39.5Q182 36 169.5 35.5Q157 35 130.0 35.0Q103 35 90.0 35.5Q77 36 67.5 40.0Q58 44 50.5 51.0Q43 58 39.5 68.0Q36 78 35.5 90.5Q35 103 35.0 130.0Q35 157 35.5 170.0Q36 183 40.0 192.5Q44 202 51.0 209.5Q58 217 68.0 220.5Q78 224 90.5 224.5Q103 225 130.0 225.0Q157 225 170.0 224.5Q183 224 192.5 220.0Q202 216 209.5 209.0Q217 202 220.5 192.0Q224 182 224.5 169.0Q225 156 225 130ZM208 168Q207 179 204.5 185.5Q202 192 197.5 197.0Q193 202 186.0 204.5Q179 207 167.5 207.5Q156 208 130.0 208.0Q104 208 92.5 207.5Q81 207 74.5 204.5Q68 202 63.0 197.5Q58 193 55.5 186.0Q53 179 52.5 167.5Q52 156 52.0 130.0Q52 104 52.5 92.5Q53 81 55.5 74.5Q58 68 62.5 63.0Q67 58 74.0 55.5Q81 53 92.0 52.5Q103 52 129.5 52.0Q156 52 167.5 52.5Q179 53 185.5 55.5Q192 58 197.0 62.5Q202 67 204.5 74.0Q207 81 207.5 92.5Q208 104 208.0 130.0Q208 156 208 168ZM130 81Q110 81 95.5 95.5Q81 110 81.0 130.0Q81 150 95.5 164.5Q110 179 130.0 179.0Q150 179 164.5 164.5Q179 150 179.0 130.0Q179 110 164.5 95.5Q150 81 130 81ZM130 162Q117 162 107.5 152.5Q98 143 98.0 130.0Q98 117 107.5 107.5Q117 98 130.0 98.0Q143 98 152.5 107.5Q162 117 162.0 130.0Q162 143 152.5 152.5Q143 162 130 162Z"></path>
</svg>
