<svg xmlns="http://www.w3.org/2000/svg" viewBox="0 0 260 260">
<path d="M130 10Q125 13 121 16Q109 25 98 35Q83 49 72 64Q57 83 49 104Q40 128 40.0 152.5Q40 177 54 200Q67 220 86.5 234.0Q106 248 125 250V222L77 174L84 167L125 208V182L77 134L84 127L125 168V142L87 104L94 97L125 128V102L107 84L114 77L125 88V50H135V88L147 77L154 84L135 102V128L167 97L174 104L135 142V168L177 127L184 134L135 182V208L177 167L184 174L135 222V250Q155 248 174.5 234.5Q194 221 207 200Q220 177 220.0 152.0Q220 127 211 104Q203 83 188 64Q177 49 162 35Q151 25 139 16Z"></path>
</svg>
