<svg xmlns="http://www.w3.org/2000/svg" viewBox="0 0 260 260">
<path d="M101 52Q105 52 108.0 55.0Q111 58 111.0 62.0Q111 66 108.0 69.0Q105 72 101.0 72.0Q97 72 94.0 69.0Q91 66 91.0 62.0Q91 58 94.0 55.0Q97 52 101 52ZM82 143Q69 131 69.0 113.0Q69 95 82 82L70 70Q61 78 56.5 89.5Q52 101 52.0 113.0Q52 125 56.5 136.0Q61 147 70 156ZM230 242 174 186Q161 196 145.5 202.0Q130 208 113 208Q87 208 65.0 195.0Q43 182 30.0 160.5Q17 139 17.0 113.0Q17 87 30.0 65.0Q43 43 65.0 30.0Q87 17 113.0 17.0Q139 17 160.5 30.0Q182 43 195.0 65.0Q208 87 208 113Q208 130 202.0 145.5Q196 161 186 174L242 230ZM191 113Q191 92 180.5 74.0Q170 56 152.0 45.5Q134 35 113.0 35.0Q92 35 74.0 45.5Q56 56 45.5 74.0Q35 92 35.0 113.0Q35 134 45.5 152.0Q56 170 74.0 180.5Q92 191 113.0 191.0Q134 191 152.0 180.5Q170 170 180.5 152.0Q191 134 191 113Z"></path>
</svg>
