<svg xmlns="http://www.w3.org/2000/svg" viewBox="0 0 260 260">
<path d="M191 156Q182 156 174.5 160.0Q167 164 162 171L103 138Q104 134 104.0 130.0Q104 126 103 122L162 89Q167 96 174.5 100.0Q182 104 191 104Q205 104 215.0 94.0Q225 84 225.0 69.5Q225 55 215.0 45.0Q205 35 190.5 35.0Q176 35 166.0 45.0Q156 55 156 69V73L95 106Q84 95 69.5 95.0Q55 95 45.0 105.5Q35 116 35.0 130.0Q35 144 45.0 154.5Q55 165 69.5 165.0Q84 165 95 154L156 187V191Q156 205 166.0 215.0Q176 225 190.5 225.0Q205 225 215.0 215.0Q225 205 225.0 190.5Q225 176 215.0 166.0Q205 156 191 156ZM191 52Q198 52 203.0 57.0Q208 62 208.0 69.0Q208 76 203.0 81.5Q198 87 191.0 87.0Q184 87 178.5 81.5Q173 76 173.0 69.0Q173 62 178.5 57.0Q184 52 191 52ZM52 130Q52 123 57.0 118.0Q62 113 69.5 113.0Q77 113 82.0 118.0Q87 123 87.0 130.0Q87 137 82.0 142.0Q77 147 69.5 147.0Q62 147 57.0 142.0Q52 137 52 130ZM191 208Q184 208 178.5 203.0Q173 198 173.0 191.0Q173 184 178.5 178.5Q184 173 191.0 173.0Q198 173 203.0 178.5Q208 184 208.0 191.0Q208 198 203.0 203.0Q198 208 191 208Z"></path>
</svg>
