<svg xmlns="http://www.w3.org/2000/svg" viewBox="0 0 260 260">
<path d="M130 88Q134 88 137.0 85.0Q140 82 140.0 78.0Q140 74 137.0 71.0Q134 68 130.0 68.0Q126 68 123.0 71.0Q120 74 120.0 78.0Q120 82 123.0 85.0Q126 88 130 88ZM130 234Q102 234 78.0 220.0Q54 206 40.0 182.0Q26 158 26.0 130.0Q26 102 40.0 78.0Q54 54 78.0 40.0Q102 26 130.0 26.0Q158 26 182.0 40.0Q206 54 220.0 78.0Q234 102 234.0 130.0Q234 158 220.0 182.0Q206 206 182.0 220.0Q158 234 130 234ZM130 43Q106 43 86.5 55.0Q67 67 55.0 86.5Q43 106 43.0 130.0Q43 154 55.0 173.5Q67 193 86.5 205.0Q106 217 130.0 217.0Q154 217 173.5 205.0Q193 193 205.0 173.5Q217 154 217.0 130.0Q217 106 205.0 86.5Q193 67 173.5 55.0Q154 43 130 43ZM139 104H121V191H139Z"></path>
</svg>
