<svg xmlns="http://www.w3.org/2000/svg" viewBox="0 0 260 260">
<path d="M189 234Q188 234 187 233Q166 230 141.0 213.5Q116 197 89.5 171.0Q63 145 47.0 119.5Q31 94 27 73Q25 67 30 62L69 22L127 80L105 102Q113 118 127.5 132.5Q142 147 158 154L180 133L238 191L198 230Q195 234 189 234ZM44 72Q48 90 63.5 113.0Q79 136 102.0 159.0Q125 182 147.5 197.0Q170 212 188 216L213 191L180 157L168 169Q166 172 162.0 172.5Q158 173 154 172Q134 164 115.0 145.0Q96 126 88 105Q87 102 87.5 98.0Q88 94 91 92L103 80L69 47Z"></path>
</svg>
