<svg xmlns="http://www.w3.org/2000/svg" viewBox="0 0 260 260">
<path d="M134 17H43V243H76V225H61V35H121V113H199V225H130V243H217V100ZM139 47 187 95H139ZM113 234Q113 237 111.0 239.5Q109 242 106.5 243.0Q104 244 101.0 243.5Q98 243 96.0 241.0Q94 239 93.5 236.0Q93 233 94.0 230.5Q95 228 97.5 226.0Q100 224 103.5 224.0Q107 224 110.0 227.0Q113 230 113 234ZM102 168 113 187 103 188 96 176 90 187H79L91 168L81 152L91 150L97 160L102 151H113ZM143 179 144 187H118V151H128V179ZM178 177Q178 181 174.5 184.5Q171 188 162.5 188.0Q154 188 147 182V181L152 174L153 175Q158 180 163.0 180.0Q168 180 168.0 177.5Q168 175 162 173H161Q155 171 151.5 169.0Q148 167 148.0 161.5Q148 156 152.0 153.0Q156 150 163.0 150.0Q170 150 176 155L177 156L172 163L171 162Q167 159 162.5 159.0Q158 159 158.0 160.5Q158 162 159.5 163.0Q161 164 164 165Q170 166 173 168Q178 171 178 177Z"></path>
</svg>
