<svg xmlns="http://www.w3.org/2000/svg" viewBox="0 0 260 260">
<path d="M96 130Q96 134 93.5 137.0Q91 140 87.0 140.0Q83 140 80.0 137.0Q77 134 77.0 130.0Q77 126 80.0 123.0Q83 120 87.0 120.0Q91 120 93.5 123.0Q96 126 96 130ZM191 81 177 95Q190 97 199.0 107.0Q208 117 208.0 130.5Q208 144 198.0 154.5Q188 165 173 165H108L90 182H173Q187 182 199.0 175.0Q211 168 218.0 156.0Q225 144 225 130Q225 113 215.5 100.0Q206 87 191 81ZM83 164Q70 163 61.0 153.0Q52 143 52.0 129.5Q52 116 62.0 105.5Q72 95 87 95H152L170 78H87Q73 78 61.0 85.0Q49 92 42.0 104.0Q35 116 35 130Q35 147 44.5 160.0Q54 173 69 179ZM173 121H114V139H173Z"></path>
</svg>
