<svg xmlns="http://www.w3.org/2000/svg" viewBox="0 0 260 260">
<path d="M172 35H88Q59 35 47.0 47.0Q35 59 35 88V172Q35 201 47.0 213.0Q59 225 88 225H172Q201 225 213.0 213.0Q225 201 225 172V88Q225 59 213.0 47.0Q201 35 172 35ZM77 155H72V145H61V155H56V130H61V140H72V130H77ZM106 144Q106 149 103.0 152.0Q100 155 95.0 155.0Q90 155 87.5 152.5Q85 150 85 144V130H90V144Q90 150 95.5 150.0Q101 150 101 144V130H106ZM98 67H103Q103 78 111.0 86.0Q119 94 130.0 94.0Q141 94 149.0 86.0Q157 78 157 67H162Q162 80 152.5 89.0Q143 98 130.0 98.0Q117 98 107.5 89.0Q98 80 98 67ZM130 155 127 150H116L114 155H108L120 130H124L135 155ZM161 155H157L152 139L146 155H142L133 130H138L144 147L150 130H154L159 147L165 130H170ZM174 155V130H193V135H179V140H188V144H179V150H193V155ZM204 155H199V130H204ZM122 136 125 145H118Z"></path>
</svg>
