<svg xmlns="http://www.w3.org/2000/svg" viewBox="0 0 260 260">
<path d="M217 104Q217 138 197 162L140 231Q136 236 130.0 236.0Q124 236 120 231L119 230L184 151Q199 132 199 104Q199 85 190.0 69.0Q181 53 165.0 44.0Q149 35 130.0 35.0Q111 35 95.0 44.0Q79 53 70.0 69.0Q61 85 61 104Q61 132 76 150L95 174L83 186L63 162Q43 138 43 104Q43 80 55.0 60.5Q67 41 86.5 29.0Q106 17 130.0 17.0Q154 17 173.5 29.0Q193 41 205.0 60.5Q217 80 217 104ZM173 104Q173 86 160.5 73.5Q148 61 130.0 61.0Q112 61 99.5 73.5Q87 86 87.0 104.0Q87 122 99.5 134.5Q112 147 130.0 147.0Q148 147 160.5 134.5Q173 122 173 104ZM156 104Q156 115 148.5 122.5Q141 130 130.0 130.0Q119 130 111.5 122.5Q104 115 104.0 104.0Q104 93 111.5 85.5Q119 78 130.0 78.0Q141 78 148.5 85.5Q156 93 156 104ZM107 191Q103 191 100.0 193.5Q97 196 97.5 200.0Q98 204 100.5 207.0Q103 210 107.0 210.0Q111 210 114.0 207.0Q117 204 117.0 200.0Q117 196 114.0 193.5Q111 191 107 191Z"></path>
</svg>
