<svg xmlns="http://www.w3.org/2000/svg" viewBox="0 0 260 260">
<path d="M134 17H43V243H76V225H61V35H121V113H199V225H130V243H217V100ZM139 47 187 95H139ZM113 234Q113 238 110.0 241.0Q107 244 103.0 244.0Q99 244 96.0 241.0Q93 238 93.0 234.0Q93 230 96.0 227.0Q99 224 103.0 224.0Q107 224 110.0 227.0Q113 230 113 234ZM97 150H83V187H93V175H97Q113 175 113.0 162.5Q113 150 97 150ZM97 166H93V158H97Q103 158 103.0 162.0Q103 166 97 166ZM149 168Q149 150 129 150H117V187H129Q149 187 149 168ZM130 179H127V158H130Q135 158 137.0 160.5Q139 163 139.0 168.5Q139 174 137.0 176.5Q135 179 130 179ZM164 158V165H176L177 173H164V187H154V150H180V158Z"></path>
</svg>
