<svg xmlns="http://www.w3.org/2000/svg" viewBox="0 0 260 260">
<path d="M146 54Q140 50 133 53L59 87H39Q30 87 23.5 93.0Q17 99 17 108V152Q17 161 23.5 167.0Q30 173 39 173H59L133 207Q136 208 139.5 208.0Q143 208 146 206Q152 202 152 195V65Q152 58 146 54ZM35 152V108Q35 107 36.0 105.5Q37 104 39 104H52V156H39Q37 156 36.0 154.5Q35 153 35 152ZM134 188 69 159V101L134 72ZM170 90 182 78Q194 87 201.0 100.5Q208 114 208.0 130.0Q208 146 201.0 159.5Q194 173 182 182L170 170Q179 163 185.0 152.5Q191 142 191.0 130.0Q191 118 185.0 107.5Q179 97 170 90ZM195 65 207 53Q224 67 233.5 87.0Q243 107 243.0 130.0Q243 153 233.5 173.0Q224 193 207 207L195 195Q209 183 217.0 166.0Q225 149 225.0 130.0Q225 111 217.0 94.0Q209 77 195 65Z"></path>
</svg>
