<svg xmlns="http://www.w3.org/2000/svg" viewBox="0 0 260 260">
<path d="M131 222Q127 222 124.0 219.5Q121 217 121 212V51Q121 45 126.0 42.0Q131 39 136.0 42.0Q141 45 141 51V212Q141 217 138.5 219.5Q136 222 131 222ZM131 222Q127 222 124.0 219.5Q121 217 121 212V51Q121 45 126.0 42.0Q131 39 136.0 42.0Q141 45 141 51V212Q141 217 138.5 219.5Q136 222 131 222ZM188 141H51Q46 141 43.5 138.5Q41 136 41.0 131.5Q41 127 43.5 124.5Q46 122 51 122H188ZM188 141H51Q46 141 43.5 138.5Q41 136 41.0 131.5Q41 127 43.5 124.5Q46 122 51 122H188ZM225 132Q225 138 219.0 141.5Q213 145 207.0 141.5Q201 138 201.0 132.5Q201 127 204.5 123.5Q208 120 213.0 120.0Q218 120 221.5 123.5Q225 127 225 132ZM225 132Q225 138 219.0 141.5Q213 145 207.0 141.5Q201 138 201.0 132.5Q201 127 204.5 123.5Q208 120 213.0 120.0Q218 120 221.5 123.5Q225 127 225 132Z"></path>
</svg>
