<svg xmlns="http://www.w3.org/2000/svg" viewBox="0 0 260 260">
<path d="M203 100Q203 100 203 100Q196 104 191 110Q182 121 182.0 135.0Q182 149 189 159Q193 166 201 171Q205 174 208 175Q208 177 205 183Q201 193 195 202Q187 213 182 218Q174 225 165 225Q159 225 150.0 221.5Q141 218 133.5 218.0Q126 218 116.5 221.5Q107 225 102 225Q94 225 86 218Q81 213 72.0 201.0Q63 189 57.5 172.0Q52 155 52.0 137.5Q52 120 59.0 107.5Q66 95 77.0 88.0Q88 81 100 81Q107 81 119 86Q128 90 131.5 90.0Q135 90 143 86Q157 81 165.5 81.0Q174 81 181 83Q195 88 203 100ZM158 65Q163 60 165.5 53.0Q168 46 168 39V35Q161 35 153.0 39.0Q145 43 140.0 48.5Q135 54 132.0 61.0Q129 68 129 75L130 78L132 79Q139 79 146.0 75.0Q153 71 158 65Z"></path>
</svg>
