<svg xmlns="http://www.w3.org/2000/svg" viewBox="0 0 260 260">
<path d="M188 141H51Q46 141 43.5 138.5Q41 136 41.0 131.5Q41 127 43.5 124.5Q46 122 51 122H188ZM188 141H51Q46 141 43.5 138.5Q41 136 41.0 131.5Q41 127 43.5 124.5Q46 122 51 122H188ZM225 132Q225 138 219.0 141.5Q213 145 207.0 141.5Q201 138 201.0 132.5Q201 127 204.5 123.5Q208 120 213.0 120.0Q218 120 221.5 123.5Q225 127 225 132ZM225 132Q225 138 219.0 141.5Q213 145 207.0 141.5Q201 138 201.0 132.5Q201 127 204.5 123.5Q208 120 213.0 120.0Q218 120 221.5 123.5Q225 127 225 132Z"></path>
</svg>
