<svg xmlns="http://www.w3.org/2000/svg" viewBox="0 0 260 260">
<path d="M204 56Q184 37 157.0 30.0Q130 23 103.0 30.0Q76 37 56.5 56.5Q37 76 30.0 103.0Q23 130 30.0 157.0Q37 184 56 204Q71 218 90.5 226.0Q110 234 130.0 234.0Q150 234 169.5 226.0Q189 218 204 204Q223 184 230.0 157.0Q237 130 230.0 103.0Q223 76 204 56ZM191 191Q175 208 152.5 214.0Q130 220 107.5 214.0Q85 208 68.5 191.5Q52 175 46.0 152.5Q40 130 46.0 107.5Q52 85 69 69Q81 56 97.0 49.5Q113 43 130.0 43.0Q147 43 163.0 49.5Q179 56 191 69Q208 85 214.0 107.5Q220 130 214.0 152.5Q208 175 191 191ZM174 89 186 101 119 168 78 127 91 115 119 144Z"></path>
</svg>
